<svg width="36" height="36" viewBox="0 0 36 36" fill="none" xmlns="http://www.w3.org/2000/svg">
<g clip-path="url(#clip0_5593_201100)">
<path d="M35.4574 22.3543C33.0534 31.9972 23.2866 37.8657 13.6425 35.4611C4.0025 33.0571 -1.86601 23.2897 0.539073 13.6476C2.94205 4.00354 12.7088 -1.86541 22.3499 0.538621C31.9933 2.94265 37.8614 12.7111 35.4572 22.3545L35.4573 22.3543H35.4574Z" fill="#F7931A"/>
<path d="M25.9352 15.4354C26.2934 13.04 24.4697 11.7524 21.976 10.8934L22.785 7.64865L20.8098 7.15648L20.0222 10.3158C19.503 10.1863 18.9697 10.0643 18.4397 9.94332L19.2329 6.76311L17.259 6.27094L16.4495 9.51467C16.0198 9.41683 15.5978 9.32014 15.1883 9.21826L15.1906 9.20805L12.4667 8.52786L11.9413 10.6375C11.9413 10.6375 13.4067 10.9734 13.3759 10.9941C14.1757 11.1937 14.3204 11.7232 14.2963 12.1429L13.3748 15.8395C13.4299 15.8534 13.5013 15.8737 13.5802 15.9054C13.5143 15.889 13.4441 15.8711 13.3714 15.8537L12.0797 21.0321C11.982 21.2751 11.7339 21.6398 11.1746 21.5013C11.1944 21.53 9.73903 21.143 9.73903 21.143L8.75838 23.404L11.3288 24.0448C11.807 24.1647 12.2756 24.2902 12.737 24.4081L11.9197 27.6902L13.8926 28.1823L14.702 24.9352C15.241 25.0815 15.7641 25.2164 16.2761 25.3437L15.4694 28.5755L17.4447 29.0677L18.262 25.7918C21.6301 26.4293 24.1627 26.1723 25.2287 23.1258C26.0876 20.673 25.1859 19.2583 23.4139 18.3357C24.7046 18.038 25.6767 17.1892 25.9359 15.4357L25.9353 15.4353L25.9352 15.4354ZM21.4223 21.7637C20.8119 24.2164 16.6822 22.8905 15.3432 22.5581L16.4279 18.21C17.7667 18.5442 22.0603 19.2057 21.4224 21.7637H21.4223ZM22.0332 15.3999C21.4763 17.631 18.0391 16.4975 16.9241 16.2195L17.9075 12.2761C19.0225 12.554 22.6132 13.0728 22.0333 15.3999H22.0332Z" fill="white"/>
</g>
<defs>
<clipPath id="clip0_5593_201100">
<rect width="35.996" height="36" fill="white"/>
</clipPath>
</defs>
</svg>
